<?xml version="1.0" encoding="UTF-8"?>
<svg width="32px" height="32px" viewBox="0 0 32 32" version="1.1" xmlns="http://www.w3.org/2000/svg" xmlns:xlink="http://www.w3.org/1999/xlink">
    <!-- Generator: Sketch 49.2 (51160) - http://www.bohemiancoding.com/sketch -->
    <title>Fill 92</title>
    <desc>Created with Sketch.</desc>
    <defs></defs>
    <g id="Pages" stroke="none" stroke-width="1" fill="none" fill-rule="evenodd">
        <g id="home-copy-13" transform="translate(-994.000000, -3015.000000)" fill="#FFFFFF">
            <g id="footer-dark-copy" transform="translate(0.000000, 2658.000000)">
                <path d="M1014.155,367.656 L1012.649,367.657 C1011.468,367.657 1011.239,368.218 1011.239,369.041 L1011.239,370.857 L1014.056,370.857 L1013.689,373.702 L1011.239,373.702 L1011.239,381 L1008.302,381 L1008.302,373.702 L1005.846,373.702 L1005.846,370.857 L1008.302,370.857 L1008.302,368.76 C1008.302,366.325 1009.789,365 1011.96,365 C1013,365 1013.894,365.077 1014.155,365.112 L1014.155,367.656 Z M994,389 L1026,389 L1026,357 L994,357 L994,389 Z" id="Fill-92"></path>
            </g>
        </g>
    </g>
</svg>