<?xml version="1.0" encoding="utf-8"?>
<!-- Generator: Adobe Illustrator 22.1.0, SVG Export Plug-In . SVG Version: 6.00 Build 0)  -->
<svg version="1.1" id="Layer_1" xmlns="http://www.w3.org/2000/svg" xmlns:xlink="http://www.w3.org/1999/xlink" x="0px" y="0px"
	 viewBox="0 0 3755.8 3755.9" style="enable-background:new 0 0 3755.8 3755.9;" xml:space="preserve">
<style type="text/css">
	.st0{clip-path:url(#SVGID_2_);}
</style>
<title>Artboard 1</title>
<g>
	<defs>
		<rect id="SVGID_1_" width="3755.8" height="3755.9"/>
	</defs>
	<clipPath id="SVGID_2_">
		<use xlink:href="#SVGID_1_"  style="overflow:visible;"/>
	</clipPath>
	<g class="st0">
		<path d="M3755.8,375.4c0,0-0.5-375.4-375.5-375.3l-0.1-0.1L0,0.1v3755.8h3755.8V375.6l-0.2-0.2L3755.8,375.4z M982.8,2844.5v643.1
			H268.3V2773h643.2C982.8,2773,982.9,2844.4,982.8,2844.5L982.8,2844.5L982.8,2844.5z M982.8,2701.5H339.7l0,0
			c-71.3,0-71.4-71.4-71.4-71.4l0,0v-643.2h71.1v643.2h643.5L982.8,2701.5z M1053.7,1986.9h71.1v714.7h-71.1V1986.9z M1769,3416.1
			L1769,3416.1c0,71.4-71.4,71.5-71.4,71.5h-571.7c-71.4,0-71.5-71.5-71.5-71.5h0.4V2773h71.1v643.1h572v-645.3h71.1V3416.1z
			 M1268.8,2701.5h-71.5v-643.1c0-71.4,71.5-71.4,71.5-71.4l0,0H1912v71.5h-643.3v571.7h571.7v-285.9h-285.8v-71.4h357.3v428.8
			H1268.8L1268.8,2701.5z M2555.1,3487.2h-71.5v-642.7h-571.7v643.1h-71.1v-643.1h-0.3c0-71.4,71.4-71.5,71.4-71.5h643.2
			L2555.1,3487.2z M2698,3487.6h-71.1V2773h71.1L2698,3487.6z M2698,2701.6h-71.5v-357.4h-571.7v357.4h-71.1v-714.7h71.1v281.8
			h571.7v-281.8h71.5L2698,2701.6z M3484.1,2844.4h-321.8v642.7h-71.1v-642.6h-321.8V2773h714.6L3484.1,2844.4z M3484.1,2060.7
			h-321.6v640.7h-71.1v-640.7h-321.9v-75.5h714.6L3484.1,2060.7z"/>
	</g>
</g>
</svg>
