<svg id="Layer_1" data-name="Layer 1" xmlns="http://www.w3.org/2000/svg" xmlns:xlink="http://www.w3.org/1999/xlink" viewBox="0 0 3755.84 3755.91"><defs><style>.cls-1{fill:none;}.cls-2{clip-path:url(#clip-path);}.cls-3{fill:#fff;}</style><clipPath id="clip-path"><rect class="cls-1" width="3755.84" height="3755.91"/></clipPath></defs><title>Artboard 1</title><g class="cls-2"><path class="cls-3" d="M3755.84,375.41S3755.34,0,3380.34.11l-.08-.08L0,.11v3755.8H3755.84V375.63l-.2-.23Zm-2773,2469.06v643.14H268.27V2773H911.44c71.34,0,71.44,71.41,71.44,71.41h0Zm0-142.94H339.66v0c-71.33,0-71.37-71.41-71.37-71.41h0V1986.9h71.1v643.16H982.88Zm70.85-714.61h71.1v714.74h-71.1ZM1769,3416.14h0c0,71.36-71.44,71.47-71.44,71.47h-571.7c-71.4,0-71.46-71.47-71.46-71.47h.36V2773h71.1v643.13h572V2770.79H1769Zm-500.22-714.62h-71.47V2058.39c0-71.41,71.47-71.44,71.47-71.44v0H1912v71.49H1268.74v571.67h571.69V2344.21H1554.58v-71.45h357.31v428.76H1268.74Zm1286.33,785.65h-71.49V2844.48H1911.89v643.13h-71.05V2844.46h-.34c0-71.41,71.39-71.46,71.39-71.46h643.18Zm142.91.44h-71.11V2773H2698Zm0-786h-71.47V2344.21H2054.82v357.43h-71.11V1986.9h71.11v281.78h571.69V1986.9H2698Zm786.09,142.83H3162.31v642.69h-71.1V2844.48H2769.45V2773h714.62Zm0-783.7H3162.48v640.74h-71.1V2060.78H2769.45v-75.52h714.62Z"/></g></svg>