<?xml version="1.0" encoding="UTF-8"?>
<svg width="32px" height="32px" viewBox="0 0 32 32" version="1.1" xmlns="http://www.w3.org/2000/svg" xmlns:xlink="http://www.w3.org/1999/xlink">
    <!-- Generator: Sketch 49.2 (51160) - http://www.bohemiancoding.com/sketch -->
    <title>Fill 174</title>
    <desc>Created with Sketch.</desc>
    <defs></defs>
    <g id="Pages" stroke="none" stroke-width="1" fill="none" fill-rule="evenodd">
        <g id="home-copy-13" transform="translate(-1036.000000, -3015.000000)" fill="#FFFFFF">
            <g id="footer-dark-copy" transform="translate(0.000000, 2658.000000)">
                <path d="M1053.234,376.563 C1052.242,376.563 1051.308,376.027 1050.989,375.417 C1050.989,375.417 1050.455,377.535 1050.343,377.944 C1049.945,379.388 1048.774,380.833 1048.683,380.951 C1048.62,381.034 1048.48,381.008 1048.465,380.899 C1048.44,380.715 1048.141,378.892 1048.493,377.406 C1048.669,376.66 1049.675,372.398 1049.675,372.398 C1049.675,372.398 1049.382,371.811 1049.382,370.944 C1049.382,369.582 1050.171,368.565 1051.154,368.565 C1051.99,368.565 1052.393,369.193 1052.393,369.945 C1052.393,370.785 1051.858,372.042 1051.582,373.206 C1051.351,374.181 1052.071,374.976 1053.033,374.976 C1054.773,374.976 1055.946,372.74 1055.946,370.09 C1055.946,368.076 1054.59,366.568 1052.122,366.568 C1049.335,366.568 1047.597,368.647 1047.597,370.97 C1047.597,371.77 1047.834,372.335 1048.204,372.772 C1048.374,372.973 1048.398,373.054 1048.336,373.284 C1048.291,373.454 1048.191,373.86 1048.148,374.022 C1048.087,374.255 1047.899,374.338 1047.688,374.252 C1046.405,373.728 1045.806,372.321 1045.806,370.741 C1045.806,368.13 1048.008,365 1052.374,365 C1055.884,365 1058.193,367.538 1058.193,370.265 C1058.193,373.87 1056.188,376.563 1053.234,376.563 L1053.234,376.563 Z M1036,389 L1068,389 L1068,357 L1036,357 L1036,389 Z" id="Fill-174"></path>
            </g>
        </g>
    </g>
</svg>