<?xml version="1.0" encoding="UTF-8"?>
<svg width="28px" height="28px" viewBox="0 0 28 28" version="1.1" xmlns="http://www.w3.org/2000/svg" xmlns:xlink="http://www.w3.org/1999/xlink">
    <!-- Generator: Sketch 49.2 (51160) - http://www.bohemiancoding.com/sketch -->
    <title>Search</title>
    <desc>Created with Sketch.</desc>
    <defs></defs>
    <g id="Symbols" stroke="none" stroke-width="1" fill="none" fill-rule="evenodd">
        <g id="nav" transform="translate(-1086.000000, -28.000000)" fill="#FFFFFF">
            <g id="Group-Copy" transform="translate(890.000000, 20.000000)">
                <g id="Glyphs/Search" transform="translate(196.000000, 8.000000)">
                    <path d="M27.4864451,25.1483454 L19.8203737,17.4792741 C21.1945279,15.6050639 21.930657,13.3391886 21.9203933,11.0152139 C21.8941736,4.94886898 16.9875913,0.0351492066 10.9212909,0.000111436689 C8.01822423,-0.0130232671 5.23048074,1.13543514 3.17909085,3.18964261 C1.12770097,5.24385007 -0.0169300147,8.03316726 0.000189302201,10.9362132 C0.0264089676,17.0031104 4.93343895,21.9172779 11.0002917,21.9523157 C13.3337338,21.9624291 15.6078875,21.2177078 17.483352,19.8292959 L17.4913521,19.8232959 L25.1504233,27.4863672 C25.5645249,27.9207982 26.1815645,28.0966457 26.7624681,27.9457769 C27.3433718,27.7949081 27.7968626,27.3410291 27.9472342,26.7599965 C28.0976058,26.1789639 27.9212303,25.5620751 27.4864451,25.1483454 L27.4864451,25.1483454 Z M10.9922916,19.7562953 C6.13907455,19.728377 2.21351439,15.7974638 2.1922097,10.9442133 C2.17911076,8.62207731 3.09489089,6.3910717 4.73569381,4.74782711 C6.37649673,3.10458252 8.60613811,2.18548593 10.928291,2.19513186 C15.781508,2.22305009 19.7070682,6.15396328 19.7283729,11.0072139 C19.7414718,13.3293498 18.8256917,15.5603554 17.1848888,17.2036 C15.5440858,18.8468446 13.3144445,19.7659412 10.9922916,19.7562953 Z" id="Search"></path>
                </g>
            </g>
        </g>
    </g>
</svg>