<?xml version="1.0" encoding="UTF-8"?>
<svg width="28px" height="28px" viewBox="0 0 28 28" version="1.1" xmlns="http://www.w3.org/2000/svg" xmlns:xlink="http://www.w3.org/1999/xlink">
    <!-- Generator: Sketch 49.2 (51160) - http://www.bohemiancoding.com/sketch -->
    <title>Search</title>
    <desc>Created with Sketch.</desc>
    <defs></defs>
    <g id="Symbols" stroke="none" stroke-width="1" fill="none" fill-rule="evenodd">
        <g id="nav-white" transform="translate(-1086.000000, -28.000000)" fill="#010204">
            <g id="Group-Copy" transform="translate(890.000000, 20.000000)">
                <g id="Glyphs/Search" transform="translate(196.000000, 8.000000)">
                    <path d="M27.4864451,25.1493355 L19.8203737,17.4799622 C21.1945279,15.6056783 21.930657,13.3397137 21.9203933,11.0156476 C21.8941736,4.94906382 16.9875913,0.0351505904 10.9212909,0.000111441077 C8.01822423,-0.0130237798 5.23048074,1.13547984 3.17909085,3.18976818 C1.12770097,5.24405653 -0.0169300147,8.03348353 0.000189302201,10.9366438 C0.0264089676,17.0037798 4.93343895,21.9181408 11.0002917,21.95318 C13.3337338,21.9632938 15.6078875,21.2185431 17.483352,19.8300766 L17.4913521,19.8240763 L25.1504233,27.4874493 C25.5645249,27.9218975 26.1815645,28.0977518 26.7624681,27.9468771 C27.3433718,27.7960024 27.7968626,27.3421055 27.9472342,26.76105 C28.0976058,26.1799946 27.9212303,25.5630815 27.4864451,25.1493355 L27.4864451,25.1493355 Z M10.9922916,19.7570731 C6.13907455,19.7291537 2.21351439,15.7980858 2.1922097,10.9446441 C2.17911076,8.62241676 3.09489089,6.39132332 4.73569381,4.74801403 C6.37649673,3.10470475 8.60613811,2.18557197 10.928291,2.19521828 C15.781508,2.22313762 19.7070682,6.15420557 19.7283729,11.0076472 C19.7414718,13.3298746 18.8256917,15.560968 17.1848888,17.2042773 C15.5440858,18.8475866 13.3144445,19.7667194 10.9922916,19.7570731 Z" id="Search"></path>
                </g>
            </g>
        </g>
    </g>
</svg>