<?xml version="1.0" encoding="UTF-8"?>
<svg width="18px" height="18px" viewBox="0 0 18 18" version="1.1" xmlns="http://www.w3.org/2000/svg" xmlns:xlink="http://www.w3.org/1999/xlink">
    <!-- Generator: Sketch 49.3 (51167) - http://www.bohemiancoding.com/sketch -->
    <title>shopping_cart - material copy</title>
    <desc>Created with Sketch.</desc>
    <defs></defs>
    <g id="Symbols" stroke="none" stroke-width="1" fill="none" fill-rule="evenodd">
        <g id="nav" transform="translate(-1090.000000, -67.000000)" fill="#FFFFFF">
            <path d="M1104.18,81 C1104.63334,81 1105.02,81.166665 1105.34,81.5 C1105.66,81.833335 1105.82,82.2266644 1105.82,82.68 C1105.82,83.1333356 1105.66,83.5199984 1105.34,83.84 C1105.02,84.1600016 1104.63334,84.32 1104.18,84.32 C1103.72666,84.32 1103.33334,84.1600016 1103,83.84 C1102.66666,83.5199984 1102.5,83.1333356 1102.5,82.68 C1102.5,82.2266644 1102.66666,81.833335 1103,81.5 C1103.33334,81.166665 1103.72666,81 1104.18,81 Z M1090.82,67.68 L1093.56,67.68 L1094.34,69.32 L1106.68,69.32 C1106.90667,69.32 1107.1,69.4033325 1107.26,69.57 C1107.42,69.7366675 1107.5,69.9399988 1107.5,70.18 C1107.5,70.3266674 1107.46,70.4533328 1107.38,70.56 L1104.42,75.96 C1104.27333,76.2133346 1104.07,76.4199992 1103.81,76.58 C1103.55,76.7400008 1103.26667,76.82 1102.96,76.82 L1096.76,76.82 L1096.02,78.18 L1095.98,78.3 C1095.98,78.3533336 1096,78.3999998 1096.04,78.44 C1096.08,78.4800002 1096.12667,78.5 1096.18,78.5 L1105.82,78.5 L1105.82,80.18 L1095.82,80.18 C1095.36666,80.18 1094.98,80.013335 1094.66,79.68 C1094.34,79.346665 1094.18,78.9533356 1094.18,78.5 C1094.18,78.2466654 1094.24667,77.986668 1094.38,77.72 L1095.5,75.64 L1092.5,69.32 L1090.82,69.32 L1090.82,67.68 Z M1095.82,81 C1096.27334,81 1096.66666,81.166665 1097,81.5 C1097.33334,81.833335 1097.5,82.2266644 1097.5,82.68 C1097.5,83.1333356 1097.33334,83.5199984 1097,83.84 C1096.66666,84.1600016 1096.27334,84.32 1095.82,84.32 C1095.36666,84.32 1094.98,84.1600016 1094.66,83.84 C1094.34,83.5199984 1094.18,83.1333356 1094.18,82.68 C1094.18,82.2266644 1094.34,81.833335 1094.66,81.5 C1094.98,81.166665 1095.36666,81 1095.82,81 Z" id="shopping_cart---material-copy"></path>
        </g>
    </g>
</svg>